<?xml version="1.0" standalone="no"?>
<!DOCTYPE svg PUBLIC "-//W3C//DTD SVG 1.1//EN"
 "http://www.w3.org/Graphics/SVG/1.1/DTD/svg11.dtd">
<!-- Created with svg_stack (http://github.com/astraw/svg_stack) -->
<svg xmlns="http://www.w3.org/2000/svg" xmlns:sodipodi="http://sodipodi.sourceforge.net/DTD/sodipodi-0.dtd" version="1.1" width="1756.25" height="1198.75">
  <defs/>
  <g id="id0:id0" transform="matrix(1.25,0,0,1.25,0.0,0.0)"><g transform="translate(0.000000,959.000000) scale(0.100000,-0.100000)" fill="#000000" stroke="none">
<path d="M1580 9319 c0 -5 -5 -7 -10 -4 -6 3 -25 -4 -43 -17 -30 -22 -41 -23 -217 -24 -241 -2 -236 -2 -224 -14 5 -5 95 -11 204 -12 134 -2 195 -6 195 -14 0 -6 -17 -30 -38 -53 -36 -40 -40 -42 -56 -27 -10 9 -27 16 -39 16 -11 0 -24 5 -27 10 -3 6 -28 10 -56 10 -53 0 -60 -9 -28 -41 16 -16 19 -30 17 -72 l-3 -52 -44 -3 c-32 -2 -52 2 -71 17 -15 11 -43 23 -63 26 -33 6 -37 5 -42 -19 -3 -14 -8 -38 -12 -53 -3 -16 -7 -41 -9 -56 -1 -15 -7 -48 -14 -72 -7 -25 -10 -53 -7 -64 3 -11 -1 -25 -8 -31 -7 -6 -12 -31 -11 -61 0 -29 -4 -53 -9 -56 -6 -2 -12 -26 -13 -54 -1 -28 -5 -56 -9 -63 -4 -6 -6 -18 -5 -28 2 -9 -1 -19 -6 -22 -5 -3 -7 -17 -4 -31 4 -23 9 -25 56 -25 42 0 57 5 74 23 12 13 19 26 16 30 -4 3 -3 14 2 24 10 23 15 51 15 83 1 14 5 30 10 36 5 6 7 18 3 27 -7 18 12 31 48 33 39 2 51 -17 43 -70 -4 -25 -10 -46 -14 -46 -3 0 -6 -30 -6 -68 l0 -67 48 2 c55 2 77 16 77 49 0 31 10 30 44 -1 18 -17 26 -32 22 -42 -20 -51 102 -41 172 14 23 19 52 126 55 205 1 21 5 38 9 38 4 0 8 15 8 34 0 19 5 38 12 42 8 5 6 11 -6 19 -14 11 -15 13 -1 19 8 3 15 18 15 34 0 15 6 34 13 41 9 11 9 14 0 18 -15 5 1 38 31 63 25 21 10 50 -46 90 -53 39 -71 38 -104 -5 -24 -32 -31 -35 -79 -35 -28 0 -55 3 -58 7 -8 7 36 70 67 95 12 10 30 18 42 18 11 0 29 7 40 15 10 8 31 15 45 15 14 0 29 3 32 7 4 3 24 8 45 10 20 2 41 8 45 12 11 11 -20 71 -36 71 -7 0 -26 14 -42 30 -30 31 -45 38 -45 19z m-345 -329 c4 6 11 8 16 5 11 -7 12 -49 2 -59 -5 -4 -8 -20 -8 -34 0 -22 -4 -27 -25 -26 -14 1 -28 -4 -32 -9 -4 -8 -14 -5 -27 7 -15 14 -18 23 -11 37 6 10 10 28 10 40 0 29 29 50 52 38 10 -6 19 -5 23 1z m210 0 c5 -8 11 -7 21 1 23 19 46 -8 38 -45 -9 -41 -35 -86 -51 -86 -7 0 -13 -4 -13 -10 0 -5 9 -10 20 -10 17 0 19 -6 17 -38 -2 -21 -10 -51 -18 -67 -12 -24 -20 -30 -44 -28 -52 3 -77 14 -69 32 4 9 6 29 5 45 -2 35 14 56 44 56 25 0 52 26 40 38 -4 4 -10 1 -12 -5 -7 -18 -30 -16 -37 3 -12 31 -6 72 15 98 22 28 34 32 44 16z m-216 -159 c11 -7 10 -10 -4 -18 -11 -7 -14 -13 -7 -17 12 -7 6 -63 -9 -82 -11 -14 -75 -5 -90 12 -9 11 -8 15 5 20 13 5 14 9 5 20 -9 11 -8 21 1 44 11 26 18 30 49 30 20 0 42 -4 50 -9z m147 -152 c4 -8 9 -8 17 0 16 16 24 14 46 -10 17 -18 18 -23 5 -47 -8 -15 -11 -34 -9 -43 12 -36 -73 -70 -112 -46 -13 8 -5 89 10 98 5 4 7 12 3 18 -4 6 -1 17 6 25 16 18 25 20 34 5z"/>
<path d="M775 9269 c-4 -6 2 -24 14 -40 17 -22 21 -43 21 -97 0 -72 10 -92 44 -92 34 0 83 36 90 66 4 16 13 32 19 36 8 5 7 11 -2 22 -7 8 -10 20 -6 26 10 16 -14 40 -60 60 -57 24 -112 33 -120 19z"/>
<path d="M2617 8999 l-46 -40 -231 2 c-126 0 -233 5 -236 10 -3 5 -13 9 -22 9 -10 0 -35 9 -57 20 l-39 20 -23 -22 c-15 -14 -21 -28 -17 -43 3 -13 1 -26 -6 -30 -6 -4 -8 -15 -5 -25 3 -10 -2 -25 -11 -35 -12 -12 -14 -19 -6 -24 9 -5 7 -27 -8 -82 -11 -41 -20 -86 -20 -100 0 -14 -3 -29 -6 -32 -4 -4 -8 -25 -10 -47 -2 -23 -9 -50 -15 -61 -5 -11 -7 -24 -4 -29 5 -9 0 -33 -29 -140 -32 -118 -47 -147 -99 -194 -53 -46 -190 -136 -209 -136 -6 0 -27 -9 -47 -19 -55 -29 -163 -44 -276 -37 -134 7 -208 16 -219 27 -6 5 -17 9 -26 9 -24 0 -73 26 -95 50 -22 24 -14 47 22 61 15 6 40 17 55 25 14 8 36 14 47 14 12 0 21 5 21 10 0 15 -81 11 -110 -5 -14 -8 -35 -14 -47 -15 -12 0 -40 -17 -63 -38 -40 -39 -40 -39 -25 -70 9 -17 26 -34 38 -38 12 -3 29 -12 37 -20 9 -7 41 -20 73 -28 31 -8 61 -17 65 -20 5 -3 35 -6 68 -7 32 -1 64 -6 71 -11 22 -18 260 3 373 32 93 24 213 84 285 144 115 95 165 161 194 256 28 92 38 99 131 95 98 -5 92 -3 79 -26 -6 -12 -9 -39 -6 -60 3 -22 1 -41 -3 -44 -5 -3 -12 -27 -15 -53 -3 -26 -10 -54 -15 -63 -5 -10 -5 -20 2 -27 6 -6 6 -12 -1 -16 -6 -4 -11 -21 -11 -38 l0 -31 50 6 c65 8 90 22 90 52 0 13 5 27 10 30 8 5 8 11 0 20 -8 9 -8 15 0 20 5 3 10 19 10 35 0 16 4 31 8 34 4 2 9 28 10 57 1 29 7 58 13 65 6 7 8 18 4 24 -6 10 2 12 95 15 90 3 99 -1 89 -38 -4 -18 -11 -54 -14 -82 -14 -127 -36 -165 -98 -165 -42 0 -77 -10 -77 -22 0 -5 8 -7 18 -4 10 3 29 -5 46 -20 24 -21 27 -28 15 -36 -11 -7 -11 -11 -1 -15 6 -2 12 -11 12 -18 0 -20 34 -37 47 -24 7 7 13 7 17 1 7 -11 76 18 93 40 29 35 51 86 41 96 -6 6 -6 12 1 16 6 4 11 20 11 35 0 15 6 33 12 39 10 10 10 15 -2 22 -12 7 -12 12 -2 22 6 6 12 25 12 40 0 15 4 28 8 28 5 0 9 25 10 55 1 31 5 61 9 68 3 6 8 25 10 42 1 16 7 57 13 90 6 33 12 69 14 80 1 11 6 27 9 35 4 8 8 39 11 68 4 45 10 59 40 88 20 19 36 38 36 42 0 12 -63 77 -96 100 l-32 22 -45 -41z m-361 -94 c0 -16 -2 -34 -5 -40 -3 -5 -6 -31 -8 -58 -5 -80 -18 -91 -110 -88 -43 1 -79 4 -80 5 -2 1 4 28 12 60 8 31 15 72 15 91 0 53 31 71 111 65 63 -5 64 -5 65 -35z m332 2 c2 -16 -2 -35 -9 -43 -10 -13 -10 -17 0 -24 9 -5 10 -10 2 -14 -6 -4 -11 -17 -11 -30 0 -12 -6 -34 -12 -49 -14 -29 -22 -31 -123 -27 -60 2 -82 14 -64 36 5 7 11 37 13 68 2 39 10 66 25 87 22 29 24 30 99 27 76 -3 77 -3 80 -31z m-368 -248 c0 -16 -4 -29 -8 -29 -4 0 -9 -23 -10 -52 -1 -28 -7 -57 -12 -64 -6 -6 -9 -18 -8 -25 2 -11 -16 -15 -75 -17 -81 -3 -119 10 -97 32 5 5 10 25 10 42 0 18 5 36 10 39 6 4 8 10 5 15 -3 5 -1 27 5 49 l11 40 77 3 c42 2 80 2 85 0 4 -2 7 -16 7 -33z m330 7 c0 -14 -4 -27 -9 -30 -4 -3 -9 -29 -10 -58 0 -29 -6 -65 -12 -80 -11 -28 -12 -28 -105 -28 -87 0 -94 2 -94 20 0 10 6 23 13 27 6 4 13 28 14 53 4 120 4 120 114 120 88 0 89 0 89 -24z"/>
<path d="M772 8890 c-16 -22 -31 -30 -52 -30 -17 0 -30 -4 -30 -10 0 -5 16 -10 35 -10 33 0 43 -8 28 -23 -3 -4 -8 -22 -9 -39 -5 -43 -11 -83 -13 -83 -1 0 -4 -16 -6 -35 -1 -19 -8 -36 -13 -38 -6 -2 -9 -9 -6 -15 2 -7 -1 -41 -9 -76 -12 -59 -16 -67 -52 -88 -22 -13 -47 -26 -55 -29 -8 -3 -27 -10 -42 -16 -16 -6 -28 -14 -28 -19 0 -29 53 -109 72 -109 5 0 41 31 81 70 47 46 80 70 95 70 14 0 47 -21 82 -51 68 -60 106 -82 175 -99 54 -13 437 -27 477 -17 16 4 34 24 53 58 15 28 36 54 47 57 10 2 17 10 15 16 -5 14 -156 16 -174 3 -8 -6 -18 -5 -26 2 -8 6 -17 8 -21 4 -10 -11 -41 -13 -220 -14 -121 -2 -171 1 -174 9 -2 7 -17 12 -33 12 -16 0 -47 11 -68 25 -39 24 -79 83 -63 94 4 3 9 33 10 66 2 33 6 62 10 65 4 3 7 10 7 15 4 76 20 129 46 153 35 31 36 42 7 68 -58 51 -115 56 -146 14z"/>
<path d="M610 8848 c0 -4 16 -8 36 -8 19 0 33 4 29 9 -7 12 -65 11 -65 -1z"/>
<path d="M1760 8835 c-7 -8 -9 -15 -6 -15 4 0 14 7 22 15 9 8 11 15 6 15 -5 0 -15 -7 -22 -15z"/>
<path d="M1739 8797 c13 -16 13 -20 1 -27 -8 -5 -11 -12 -7 -17 5 -4 13 -1 18 7 8 11 12 12 16 3 2 -7 9 -13 15 -13 6 0 5 7 -3 16 -10 13 -10 17 1 24 8 5 11 12 7 17 -5 4 -12 1 -17 -7 -7 -12 -11 -12 -27 1 -17 13 -17 13 -4 -4z"/>
<path d="M2837 8752 c-15 -17 -15 -19 3 -35 11 -9 20 -13 20 -7 0 5 -5 12 -11 15 -7 5 -4 14 7 26 9 10 13 19 7 19 -5 0 -17 -8 -26 -18z"/>
<path d="M1742 8724 c-11 -12 -11 -17 2 -29 19 -20 32 -19 16 0 -10 12 -10 18 0 30 16 19 -1 19 -18 -1z"/>
<path d="M9828 8713 c-22 -6 -22 -6 -2 -45 12 -23 13 -32 4 -38 -7 -4 -74 -7 -149 -7 l-136 0 -3 -81 -3 -82 40 0 c40 0 40 0 43 43 l3 42 247 3 247 2 3 -42 c3 -43 3 -43 43 -43 l40 0 3 78 3 77 -58 2 c-32 1 -80 3 -108 4 -27 1 -64 2 -80 3 -27 1 -33 7 -46 44 -13 35 -20 42 -45 44 -16 0 -37 -1 -46 -4z"/>
<path d="M2820 8691 c0 -6 5 -13 10 -16 6 -3 10 1 10 9 0 9 -4 16 -10 16 -5 0 -10 -4 -10 -9z"/>
<path d="M7962 8667 c-45 -14 -107 -87 -129 -150 -13 -38 -17 -81 -17 -162 1 -231 69 -326 222 -311 31 3 60 5 64 6 15 0 80 65 95 94 47 91 58 266 23 378 -38 125 -141 183 -258 145z m120 -97 c37 -28 53 -98 53 -226 -1 -98 -3 -116 -26 -160 -21 -40 -32 -51 -62 -58 -51 -13 -80 3 -107 59 -21 44 -22 57 -18 174 4 101 10 135 26 167 32 62 88 81 134 44z"/>
<path d="M8467 8665 c-52 -18 -82 -48 -114 -114 -25 -52 -27 -66 -28 -186 0 -162 17 -227 76 -279 46 -42 72 -50 144 -44 117 10 189 104 201 264 7 91 -9 211 -36 264 -47 92 -145 130 -243 95z m128 -97 c21 -19 28 -38 38 -103 29 -184 -3 -327 -77 -340 -46 -9 -68 -1 -94 35 -32 42 -47 170 -32 265 16 98 19 106 52 137 37 34 77 36 113 6z"/>
<path d="M8977 8666 c-54 -20 -86 -52 -115 -116 -59 -132 -37 -383 40 -457 110 -106 284 -49 333 109 25 79 30 190 11 277 -18 86 -38 123 -87 163 -44 36 -123 46 -182 24z m119 -91 c30 -20 42 -57 53 -160 15 -143 -12 -259 -65 -284 -40 -18 -71 -13 -103 17 -33 30 -48 83 -52 183 -1 41 22 173 36 199 29 56 87 76 131 45z"/>
<path d="M7368 8662 c-51 -3 -57 -5 -62 -28 -4 -14 -4 -34 -1 -45 6 -18 17 -19 146 -19 76 0 139 -4 139 -8 0 -5 -19 -42 -43 -83 -46 -82 -58 -109 -111 -244 -38 -97 -60 -174 -53 -182 8 -7 85 -11 95 -4 4 3 14 29 21 56 32 127 131 343 203 447 31 44 39 63 34 82 l-6 25 -153 3 c-83 2 -177 2 -209 0z"/>
<path d="M2812 8630 c-12 -19 -11 -20 8 -8 20 13 27 28 12 28 -4 0 -13 -9 -20 -20z"/>
<path d="M1710 8592 c0 -5 7 -15 15 -22 8 -7 15 -8 15 -2 0 5 -7 15 -15 22 -8 7 -15 8 -15 2z"/>
<path d="M2816 8541 c-15 -16 -15 -19 -1 -31 9 -7 18 -10 22 -6 3 3 1 6 -5 6 -16 0 -15 27 1 33 6 2 9 7 6 11 -3 3 -13 -2 -23 -13z"/>
<path d="M9647 8473 c-4 -3 -7 -19 -7 -35 l0 -28 108 -2 c59 -1 126 -2 149 -3 22 0 44 -3 48 -7 3 -3 -17 -18 -45 -34 -32 -17 -53 -36 -56 -51 -4 -13 -11 -24 -18 -25 -6 -1 -78 -2 -161 -2 l-150 -1 -3 -37 -3 -38 165 0 166 0 0 -45 c0 -68 -26 -89 -96 -80 -53 6 -54 6 -54 -18 0 -52 7 -57 86 -57 117 0 139 19 148 130 3 30 5 58 5 63 1 4 69 7 152 7 l150 0 -3 38 c-2 24 -8 37 -18 38 -8 1 -75 2 -148 2 -78 1 -131 6 -128 11 4 5 35 26 71 45 82 47 95 60 95 102 l0 34 -223 0 c-123 0 -227 -3 -230 -7z"/>
<path d="M2750 8290 c0 -5 5 -10 10 -10 6 0 10 5 10 10 0 6 -4 10 -10 10 -5 0 -10 -4 -10 -10z"/>
<path d="M2730 8220 c0 -5 5 -10 10 -10 6 0 10 5 10 10 0 6 -4 10 -10 10 -5 0 -10 -4 -10 -10z"/>
<path d="M1980 8131 c0 -5 -25 -33 -55 -63 -40 -39 -54 -59 -49 -71 3 -9 12 -17 19 -17 7 0 15 -6 17 -12 3 -9 9 -8 21 4 21 21 22 35 2 18 -9 -7 -19 -10 -22 -6 -4 4 -1 11 7 16 11 7 12 11 0 24 -24 29 -2 29 25 0 l27 -29 -8 30 c-5 25 -4 28 7 18 19 -19 34 -16 18 3 -10 13 -10 17 2 25 12 8 12 10 -1 19 -12 7 -12 12 -2 22 15 15 16 28 2 28 -5 0 -10 -4 -10 -9z m0 -51 c0 -5 -4 -10 -10 -10 -5 0 -10 5 -10 10 0 6 5 10 10 10 6 0 10 -4 10 -10z m-30 -20 c0 -5 -4 -10 -10 -10 -5 0 -10 5 -10 10 0 6 5 10 10 10 6 0 10 -4 10 -10z m-44 -57 c-10 -10 -19 5 -10 18 6 11 8 11 12 0 2 -7 1 -15 -2 -18z"/>
<path d="M2730 8129 c0 -5 5 -7 10 -4 6 3 10 8 10 11 0 2 -4 4 -10 4 -5 0 -10 -5 -10 -11z"/>
<path d="M1200 8103 c0 -12 8 -18 26 -19 18 -2 24 2 20 12 -7 18 1 18 19 1 7 -8 30 -13 52 -11 52 3 50 2 57 19 4 13 -9 15 -84 15 -79 0 -90 -2 -90 -17z m145 -3 c3 -5 1 -10 -4 -10 -6 0 -11 5 -11 10 0 6 2 10 4 10 3 0 8 -4 11 -10z"/>
<path d="M1390 8110 c0 -5 7 -10 15 -10 8 0 15 5 15 10 0 6 -7 10 -15 10 -8 0 -15 -4 -15 -10z"/>
<path d="M2717 8100 c10 -11 9 -17 -4 -32 -9 -10 -12 -18 -7 -18 5 0 15 9 21 19 10 16 9 22 -5 32 -14 11 -15 11 -5 -1z"/>
<path d="M2694 8007 c-45 -49 -103 -94 -111 -86 -6 6 -18 1 -32 -12 -13 -12 -29 -18 -38 -15 -14 6 -14 4 -2 -11 8 -10 20 -24 28 -32 12 -13 13 -12 7 7 -4 12 -3 22 2 22 6 0 12 -6 15 -12 3 -10 7 -10 19 0 9 7 24 9 34 5 17 -6 17 -5 5 10 -8 10 -11 21 -7 24 4 4 11 1 16 -7 13 -20 42 6 35 31 -7 21 5 25 23 7 9 -9 12 -9 12 0 0 7 -4 12 -10 12 -5 0 -10 7 -10 15 0 18 11 19 30 3 12 -11 12 -10 1 5 -11 14 -11 20 -1 32 15 18 0 20 -16 2z"/>
<path d="M1840 7991 c0 -5 6 -11 13 -14 9 -3 9 -7 -2 -20 -7 -10 -9 -17 -3 -17 6 0 12 6 15 13 3 8 10 6 21 -8 12 -16 15 -17 16 -4 0 8 -11 25 -25 37 -28 24 -35 27 -35 13z"/>
<path d="M2280 7970 c0 -5 5 -10 11 -10 5 0 7 5 4 10 -3 6 -8 10 -11 10 -2 0 -4 -4 -4 -10z"/>
<path d="M1796 7945 c-25 -22 -27 -26 -13 -40 20 -19 33 -20 17 0 -11 13 -8 19 14 40 35 32 20 33 -18 0z"/>
<path d="M1865 7920 c3 -5 8 -10 11 -10 2 0 4 5 4 10 0 6 -5 10 -11 10 -5 0 -7 -4 -4 -10z"/>
<path d="M1700 7849 c0 -5 5 -7 10 -4 6 3 10 8 10 11 0 2 -4 4 -10 4 -5 0 -10 -5 -10 -11z"/>
<path d="M975 7780 c4 -6 11 -8 16 -5 14 9 11 15 -7 15 -8 0 -12 -5 -9 -10z"/>
<path d="M1020 7779 c0 -5 5 -7 10 -4 6 3 10 8 10 11 0 2 -4 4 -10 4 -5 0 -10 -5 -10 -11z"/>
<path d="M8310 6583 c-26 -9 -60 -46 -60 -63 0 -26 36 -67 66 -74 26 -7 26 -7 19 -81 -12 -132 -3 -121 -172 -208 -122 -62 -163 -78 -212 -83 -74 -8 -90 -23 -67 -59 21 -32 60 -48 100 -40 52 11 147 52 223 95 39 23 77 39 83 35 15 -9 3 -129 -17 -173 -16 -33 -101 -112 -185 -172 -26 -18 -49 -38 -52 -46 -3 -7 -30 -25 -61 -40 -74 -36 -83 -53 -49 -93 30 -36 54 -39 122 -12 47 19 50 19 88 2 41 -19 67 -49 102 -116 11 -22 32 -51 46 -64 25 -23 29 -24 63 -12 73 27 188 45 260 42 33 -1 49 -38 28 -61 -23 -26 -173 -80 -252 -91 -89 -13 -129 -50 -104 -98 19 -34 47 -34 152 -1 95 31 101 32 119 15 18 -17 21 -16 67 14 56 37 74 36 84 -2 11 -42 -6 -76 -45 -92 -19 -8 -104 -49 -188 -91 -137 -68 -246 -114 -270 -114 -4 0 -8 8 -8 19 0 31 -22 42 -63 30 -73 -20 -128 -96 -97 -134 16 -20 140 -20 212 -1 100 27 114 33 345 149 62 32 119 57 126 57 14 0 27 -119 27 -255 0 -78 -24 -203 -43 -222 -10 -11 -45 -16 -118 -20 -166 -7 -277 -28 -256 -49 9 -10 192 -50 319 -70 l108 -18 30 29 c36 35 46 62 65 190 18 123 19 241 1 365 -13 85 -13 96 1 107 25 20 97 26 242 21 75 -3 142 -3 149 -1 7 3 21 23 32 46 18 36 18 43 6 55 -22 22 -193 38 -259 24 -64 -13 -145 -31 -173 -38 -24 -6 -34 16 -34 73 0 29 4 33 41 43 82 22 146 84 124 120 -3 5 -19 17 -35 25 -24 13 -34 13 -67 1 -33 -12 -70 -14 -115 -7 -5 1 -8 5 -8 10 0 9 42 25 163 63 59 19 71 26 92 62 31 51 21 72 -38 81 -42 6 -127 -19 -209 -61 -16 -9 -32 -13 -35 -10 -8 8 28 198 40 214 13 16 86 15 117 -3 34 -20 109 -20 116 0 10 26 21 17 43 -38 37 -92 209 -237 303 -257 24 -4 63 -16 88 -25 76 -29 171 -45 263 -45 l87 0 22 44 21 45 -33 68 c-25 51 -59 93 -132 167 -54 55 -101 96 -104 93 -8 -8 8 -48 68 -170 26 -54 48 -104 48 -112 0 -23 -39 -26 -125 -11 -183 33 -259 69 -356 169 -38 40 -69 79 -69 88 0 9 -7 33 -15 54 -41 96 -38 155 22 432 25 117 25 123 9 148 -16 24 -22 26 -54 20 -21 -3 -63 -22 -95 -41 -32 -19 -62 -34 -67 -34 -4 0 -11 19 -15 43 -14 94 -16 98 -63 129 -39 25 -55 29 -94 25 -34 -3 -53 -11 -67 -28 -37 -44 -20 -69 45 -69 57 0 74 -24 74 -105 -1 -75 -32 -143 -75 -165 -16 -8 -32 -18 -33 -23 -6 -11 -144 -118 -149 -114 -2 2 1 16 6 30 20 53 -13 50 -80 -8 -29 -25 -57 -45 -62 -45 -10 0 0 65 14 91 5 10 27 20 49 24 49 8 88 41 96 82 7 38 0 42 -76 51 l-61 7 -2 118 c-2 111 -3 120 -26 138 -22 18 -60 23 -91 12z m695 -283 c3 -5 -1 -43 -10 -84 -8 -41 -15 -122 -15 -180 0 -57 -2 -111 -6 -119 -4 -12 -17 -12 -91 0 -48 7 -88 15 -90 17 -5 5 34 148 58 211 25 67 71 139 97 154 22 13 49 14 57 1z m-275 -207 c0 -19 -54 -159 -64 -165 -6 -4 -31 -8 -56 -8 -25 0 -56 -3 -69 -7 -25 -6 -25 -20 -1 -123 6 -25 13 -65 15 -89 2 -30 14 -62 39 -99 20 -30 34 -57 32 -59 -10 -10 -113 -32 -181 -38 l-74 -7 -6 33 c-10 52 1 310 15 344 14 37 69 95 89 95 8 0 22 -7 31 -15 15 -13 21 -11 67 28 128 106 163 130 163 110z m-84 -288 c4 -8 3 -23 0 -32 -6 -15 -9 -15 -28 4 -21 22 -18 43 8 43 8 0 17 -7 20 -15z m-379 -116 c-3 -33 -8 -63 -11 -67 -4 -3 -19 -1 -34 4 -22 8 -27 15 -25 43 1 35 36 81 61 81 12 0 14 -12 9 -61z"/>
<path d="M2119 6561 c-21 -17 -22 -21 -11 -46 7 -15 10 -36 6 -47 -12 -40 -89 -164 -115 -185 -50 -42 -45 -113 7 -113 26 0 68 23 94 52 36 40 157 101 230 116 81 17 110 13 110 -14 0 -21 -160 -184 -245 -252 -87 -68 -244 -231 -262 -272 -33 -74 -41 -124 -32 -211 19 -191 22 -308 10 -323 -7 -8 -49 -27 -94 -42 -45 -15 -106 -37 -136 -50 -29 -13 -59 -24 -66 -24 -30 0 -25 350 6 383 8 9 19 22 24 29 92 119 104 139 125 211 13 43 -12 34 -76 -29 -31 -30 -60 -51 -64 -47 -12 13 11 216 26 234 13 14 44 29 152 75 18 8 36 22 39 31 4 10 13 24 20 32 22 21 1 35 -81 56 -105 26 -110 32 -107 158 1 57 -1 115 -4 130 -9 33 -59 52 -107 39 -45 -11 -60 -64 -34 -120 35 -72 36 -267 2 -314 -13 -17 -289 -158 -311 -158 -7 0 -19 7 -26 16 -27 33 -149 -8 -149 -51 0 -6 14 -24 31 -41 28 -27 35 -29 100 -27 61 2 85 10 189 58 65 30 129 55 141 55 22 0 22 -1 15 -124 -4 -68 -9 -132 -11 -142 -2 -11 -4 -27 -4 -37 -1 -23 -290 -308 -358 -355 -61 -40 -69 -71 -28 -98 20 -13 39 -15 88 -10 72 7 75 5 158 -109 90 -124 171 -215 195 -221 49 -12 64 43 45 160 -10 61 -1 100 25 105 10 2 38 12 61 22 23 10 47 19 52 19 18 0 119 51 132 66 6 8 17 14 23 14 6 0 48 18 94 40 45 22 84 40 87 40 12 0 2 -35 -30 -106 -19 -42 -35 -82 -35 -89 0 -6 -9 -20 -20 -30 -11 -10 -20 -23 -20 -30 0 -7 -18 -40 -40 -74 -22 -34 -40 -65 -40 -69 0 -4 9 -13 21 -20 17 -11 25 -10 53 7 18 11 39 33 46 48 8 15 24 39 36 53 12 14 33 50 46 80 51 119 119 240 155 277 43 44 60 50 263 89 100 19 185 29 275 31 129 4 136 3 273 -38 40 -13 44 -12 67 11 13 14 27 37 30 53 7 25 4 29 -56 57 -35 16 -95 34 -134 39 -89 13 -198 44 -271 76 -31 14 -59 23 -62 21 -11 -12 11 -38 60 -73 l53 -38 -55 -7 c-30 -4 -107 -18 -170 -32 -63 -14 -126 -25 -139 -26 -24 0 -24 0 -6 20 10 12 35 30 54 42 37 22 152 116 206 167 17 15 40 33 52 40 29 15 75 94 67 114 -10 28 -89 66 -160 77 -71 11 -107 9 -209 -15 -43 -10 -71 -12 -100 -5 -54 13 -61 12 -79 -5 -10 -10 -13 -26 -10 -44 5 -21 2 -30 -13 -35 -47 -18 -143 -83 -152 -104 -14 -30 -14 -65 1 -80 16 -16 48 -15 48 1 0 11 115 77 133 77 3 0 7 -11 9 -24 8 -43 -9 -130 -41 -208 -29 -69 -36 -78 -76 -97 -74 -35 -75 -34 -75 79 0 88 -2 100 -20 110 -27 15 -35 72 -22 164 11 77 13 81 59 123 27 23 84 67 128 97 157 107 312 251 362 336 11 19 23 54 27 77 6 38 4 43 -26 64 -60 43 -192 33 -300 -23 -47 -24 -56 -19 -40 25 18 50 15 101 -9 131 -24 31 -48 33 -80 7z m456 -761 c9 -15 -228 -261 -239 -249 -2 3 19 205 24 226 0 1 16 5 35 9 19 3 38 10 41 15 7 13 131 11 139 -1z m-1077 -546 c4 -128 -5 -234 -20 -234 -6 0 -44 33 -84 73 l-74 72 27 53 c30 57 120 155 138 149 6 -2 11 -48 13 -113z"/>
<path d="M11713 6539 c-19 -7 -23 -16 -23 -52 0 -25 7 -64 15 -87 18 -50 19 -110 4 -195 l-11 -62 -94 -57 c-135 -80 -274 -134 -315 -121 -16 6 -19 12 -14 36 4 19 3 29 -5 29 -23 0 -66 -29 -80 -54 -11 -22 -11 -30 1 -53 48 -90 161 -79 383 36 54 28 101 50 103 48 2 -3 -4 -58 -13 -123 -17 -119 -17 -119 -62 -169 -83 -90 -215 -206 -263 -231 -64 -32 -73 -50 -47 -94 12 -19 23 -37 24 -39 2 -2 43 -3 93 -2 85 2 90 1 110 -25 11 -15 26 -45 32 -68 22 -81 84 -174 138 -207 16 -9 42 -41 59 -71 17 -29 42 -64 56 -77 25 -24 26 -24 69 -7 25 9 62 32 83 51 33 28 37 36 28 52 -13 21 -55 29 -82 14 -16 -8 -29 -3 -72 29 -29 22 -61 42 -72 45 -13 5 -18 16 -18 40 0 19 -5 46 -11 62 -5 15 -13 100 -15 188 -8 222 20 374 73 403 13 8 24 3 46 -20 38 -37 56 -33 72 17 8 23 32 56 57 79 43 38 116 81 124 73 7 -7 -14 -137 -31 -194 -11 -37 -21 -53 -33 -53 -9 -1 -44 -3 -77 -7 -102 -10 -120 -33 -61 -78 37 -28 43 -49 53 -190 9 -131 59 -234 101 -209 33 20 51 77 61 192 10 128 25 162 69 162 47 0 71 -11 74 -33 5 -34 50 -45 95 -22 21 11 41 19 45 20 5 0 32 -33 60 -74 63 -89 121 -125 263 -165 88 -25 99 -26 182 -16 96 12 133 29 133 61 0 11 5 30 11 41 8 15 7 30 -5 63 -20 51 -34 68 -106 127 -30 24 -77 66 -103 91 -49 48 -61 54 -72 37 -7 -12 37 -95 85 -157 20 -27 45 -63 55 -81 17 -29 18 -34 5 -43 -22 -15 -197 -4 -250 15 -59 22 -124 87 -157 156 -26 54 -26 57 -20 220 7 194 16 253 57 378 16 51 31 107 33 124 2 28 -2 32 -30 40 -37 10 -67 -2 -146 -58 -26 -19 -51 -34 -56 -34 -5 0 -9 43 -8 98 2 80 -1 103 -16 126 -10 15 -21 25 -24 23 -2 -3 -13 3 -24 14 -31 31 -108 22 -123 -16 -9 -25 4 -43 40 -55 56 -19 57 -79 6 -235 -21 -66 -35 -88 -74 -127 -26 -26 -58 -50 -70 -54 -13 -4 -25 -10 -28 -14 -8 -10 -114 -80 -122 -80 -4 0 6 21 22 47 60 95 31 98 -62 6 -37 -37 -70 -65 -72 -62 -9 9 14 133 28 154 14 21 69 38 158 50 43 5 47 9 62 46 27 66 19 79 -47 79 -18 1 -58 6 -90 13 l-59 12 -1 107 c-2 90 -5 111 -22 134 -25 33 -53 44 -82 33z m687 -397 c0 -5 -9 -51 -19 -103 -11 -52 -24 -163 -30 -248 -6 -84 -12 -155 -14 -157 -2 -2 -26 1 -53 7 -27 6 -67 14 -89 17 l-40 7 2 47 c0 25 13 95 27 155 14 59 28 118 31 130 6 27 65 86 124 124 47 30 61 35 61 21z m-780 -659 c0 -109 -7 -122 -46 -96 -16 10 -38 24 -49 29 -34 19 -28 39 31 98 31 31 58 56 60 56 2 0 4 -39 4 -87z m394 68 c8 -12 -3 -41 -15 -41 -5 0 -9 11 -9 25 0 25 14 34 24 16z"/>
<path d="M5410 6455 c-13 -61 -53 -127 -118 -194 -46 -47 -53 -78 -24 -104 26 -24 41 -21 97 18 140 98 164 112 206 119 24 4 54 9 67 13 12 3 22 1 22 -4 0 -27 -471 -483 -499 -483 -36 0 -42 -31 -20 -106 15 -50 22 -111 26 -224 6 -171 12 -196 45 -209 19 -7 28 -3 50 23 45 52 33 10 -37 -133 -55 -109 -72 -135 -104 -155 -67 -43 -103 -153 -61 -191 52 -47 100 12 266 333 33 63 67 129 77 147 28 53 164 165 199 165 6 0 19 6 27 14 19 15 106 46 133 46 25 0 60 59 53 88 -7 27 4 38 142 149 100 81 163 147 163 169 0 16 -57 58 -104 78 -76 32 -149 18 -333 -60 -97 -42 -106 -44 -143 -33 -44 13 -70 2 -70 -31 0 -28 -31 -56 -83 -75 -41 -15 -67 -38 -67 -59 0 -19 37 -36 81 -36 42 0 49 -3 49 -19 0 -11 -5 -23 -10 -26 -6 -3 -8 -16 -5 -28 11 -43 -95 -227 -130 -227 -17 0 -23 27 -35 165 -6 61 -13 127 -16 147 -6 35 -4 38 57 85 77 59 144 119 274 246 55 55 119 115 143 135 70 57 100 134 69 176 -21 29 -99 31 -187 7 -94 -26 -123 -27 -116 -3 18 62 18 90 -3 111 -12 12 -32 21 -45 21 -22 0 -26 -7 -36 -55z m526 -537 c9 -14 -87 -104 -199 -187 -74 -53 -92 -62 -115 -56 -15 3 -35 7 -44 8 -22 2 -22 8 -4 52 8 18 12 36 9 39 -12 11 33 49 87 73 80 36 212 82 237 83 12 0 25 -5 29 -12z m-376 -314 c-30 -35 -36 8 -6 45 9 12 12 10 14 -8 2 -12 -2 -29 -8 -37z"/>
<path d="M4904 6399 c-19 -10 -20 -19 -20 -152 1 -78 -3 -162 -7 -187 -7 -44 -9 -46 -78 -78 -129 -59 -350 -115 -364 -92 -9 14 -42 -5 -56 -31 -9 -17 -7 -25 12 -45 19 -20 32 -24 78 -24 58 0 196 33 291 69 30 12 66 21 79 21 22 0 23 -3 18 -42 -15 -106 -36 -264 -37 -271 0 -13 -198 -203 -255 -246 -115 -87 -138 -131 -89 -170 26 -21 66 -20 88 0 34 31 75 -11 100 -103 48 -175 89 -263 137 -288 24 -14 55 -5 64 18 4 9 9 143 11 297 2 154 6 294 8 310 3 17 8 50 11 74 7 49 19 70 86 154 38 48 89 151 89 181 0 12 -55 -22 -84 -53 -17 -17 -33 -31 -38 -31 -21 0 6 194 32 225 7 8 17 15 24 15 6 0 34 12 62 26 46 23 84 65 84 92 0 20 -32 42 -61 42 -35 0 -70 16 -84 39 -5 9 -10 64 -10 122 0 114 -9 140 -49 138 -11 0 -30 -5 -42 -10z m-120 -1161 c-3 -73 -10 -139 -14 -146 -5 -10 -24 6 -64 52 l-58 65 23 33 c40 58 101 128 111 128 6 0 7 -49 2 -132z"/>
<path d="M6460 5425 c-8 -9 -15 -86 -21 -220 -6 -147 -13 -213 -23 -234 -18 -33 -58 -54 -164 -84 -98 -27 -291 -28 -430 -2 -94 17 -94 17 -122 62 -39 61 -45 102 -42 295 l3 168 -25 11 c-38 18 -53 -1 -60 -74 -4 -34 -11 -110 -18 -168 -26 -240 39 -370 207 -416 84 -23 306 -36 394 -23 191 28 339 88 370 149 10 20 22 50 25 67 9 40 -19 250 -44 339 -11 38 -20 87 -20 107 0 40 -10 48 -30 23z"/>
<path d="M12845 5136 c-25 -18 -14 -40 36 -73 61 -40 126 -110 155 -166 27 -53 24 -72 -11 -63 -33 8 -51 -17 -37 -49 14 -30 88 -112 114 -126 24 -13 62 12 78 52 21 49 8 154 -29 234 -39 86 -48 95 -138 152 -78 48 -137 62 -168 39z"/>
<path d="M2605 5120 c-10 -15 23 -68 70 -114 84 -80 131 -171 145 -280 15 -122 51 -164 97 -113 40 43 42 58 27 147 -20 114 -60 197 -128 266 -75 75 -191 127 -211 94z"/>
<path d="M12215 5093 c-57 -15 -52 -44 12 -68 25 -10 70 -40 100 -66 66 -61 96 -64 150 -15 21 18 64 48 95 66 64 35 75 47 60 62 -6 6 -30 4 -70 -6 -84 -22 -147 -20 -188 5 -34 20 -121 33 -159 22z"/>
<path d="M11251 5039 c-38 -62 -35 -225 4 -286 18 -27 26 -28 79 -9 64 22 75 76 21 107 l-35 21 0 80 c0 116 -29 153 -69 87z"/>
<path d="M8985 2878 c-16 -5 -43 -14 -60 -20 -284 -95 -370 -119 -463 -133 -122 -19 -182 -33 -182 -43 1 -4 33 -23 73 -42 l72 -35 6 -55 c3 -31 11 -65 17 -77 7 -12 18 -52 26 -90 26 -120 -7 -299 -70 -381 -33 -43 -38 -76 -7 -51 22 19 34 -6 31 -66 l-3 -50 -87 -45 c-47 -25 -92 -50 -100 -56 -7 -6 -24 -14 -38 -17 -14 -3 -63 -20 -110 -36 -47 -17 -94 -31 -105 -30 -17 0 -16 3 9 24 17 13 48 33 70 45 52 27 142 107 133 117 -9 9 -86 -30 -145 -74 -24 -18 -48 -33 -54 -33 -25 0 -138 -87 -148 -114 -13 -38 -13 -42 6 -60 46 -46 235 8 519 149 198 98 378 175 408 175 9 0 17 -6 17 -14 0 -8 8 -17 19 -21 11 -3 21 -19 25 -37 3 -18 18 -45 33 -60 l27 -28 -71 -72 c-75 -79 -111 -130 -132 -193 -8 -22 -26 -56 -41 -75 -15 -19 -34 -49 -43 -66 -19 -37 -43 -58 -56 -49 -11 6 19 72 59 130 11 17 29 59 40 94 26 82 15 133 -32 157 -49 25 -131 13 -203 -31 -32 -19 -66 -35 -75 -35 -31 0 -141 -62 -150 -84 -10 -28 14 -56 51 -56 15 0 56 13 91 29 34 15 83 37 108 48 62 28 87 35 93 26 8 -12 -37 -112 -67 -150 l-27 -33 -32 17 c-86 44 -166 31 -167 -29 0 -12 12 -19 47 -24 29 -4 56 -16 70 -30 31 -31 23 -46 -77 -145 -100 -100 -120 -112 -153 -100 -20 8 -30 7 -42 -5 -19 -19 -19 -24 0 -51 29 -42 101 -47 164 -14 33 18 143 120 170 157 13 19 30 34 38 34 7 0 27 -30 44 -66 45 -94 57 -104 129 -104 44 0 74 7 108 24 26 13 63 28 82 35 19 6 76 44 125 84 126 101 128 102 203 63 33 -18 102 -64 152 -102 80 -59 97 -77 122 -129 25 -53 46 -86 113 -182 20 -29 56 -29 81 -2 15 16 18 34 17 76 -4 74 -41 140 -123 219 -68 65 -168 144 -183 144 -5 0 -47 25 -93 55 l-84 55 31 57 c99 183 116 305 53 368 -35 35 -71 45 -160 45 l-71 0 -7 31 c-3 18 -1 43 7 58 10 22 23 28 82 39 39 7 133 14 209 17 129 5 140 7 155 27 36 50 34 71 -10 93 -36 19 -155 19 -314 0 -66 -7 -124 -10 -128 -6 -5 5 -3 85 3 177 7 93 12 220 11 283 -1 125 -7 139 -76 182 l-30 19 36 0 c20 0 60 4 90 10 30 5 81 12 113 16 111 11 151 93 60 121 -47 14 -187 15 -229 1z m-145 -191 c0 -8 13 -25 29 -40 23 -20 31 -37 36 -82 11 -86 -4 -527 -18 -542 -7 -6 -55 -28 -107 -47 -52 -20 -114 -45 -138 -56 -79 -37 -98 -20 -87 77 7 54 17 65 95 100 30 13 75 33 100 44 43 20 100 79 100 105 0 49 -93 59 -172 19 -76 -38 -88 -35 -88 24 0 42 4 53 27 70 36 29 69 36 110 23 29 -9 37 -8 53 8 23 23 34 74 21 98 -17 32 -54 34 -138 7 -43 -14 -84 -25 -91 -25 -7 0 -22 21 -34 48 -11 26 -27 55 -36 65 -8 9 -13 19 -11 20 9 7 186 56 224 62 22 3 51 13 65 20 32 18 60 19 60 2z m295 -1010 c15 -12 17 -22 11 -58 -10 -69 -47 -166 -76 -201 l-27 -32 -42 17 c-42 17 -185 27 -198 13 -12 -12 38 -54 98 -82 32 -16 59 -34 59 -40 0 -11 -67 -68 -175 -151 -42 -32 -104 -65 -144 -78 -22 -7 -23 -5 -19 26 9 61 46 190 61 212 13 20 65 143 81 190 3 9 12 17 21 17 8 0 30 20 48 45 26 37 50 54 127 90 98 47 143 55 175 32z"/>
<path d="M12156 2839 c-15 -9 -17 -19 -12 -63 8 -62 -12 -157 -47 -224 -22 -42 -32 -50 -118 -89 -52 -23 -108 -43 -125 -43 -29 0 -31 3 -43 58 -27 124 -35 149 -63 200 -41 73 -64 86 -117 70 -22 -7 -41 -17 -41 -22 0 -6 20 -35 44 -66 48 -61 86 -159 86 -221 0 -36 -2 -39 -42 -50 -25 -6 -72 -9 -112 -6 -55 5 -75 3 -98 -11 -34 -20 -35 -32 -3 -62 23 -22 32 -23 130 -21 105 2 105 2 133 -27 29 -31 72 -98 72 -112 0 -11 -144 -145 -206 -191 -55 -40 -115 -69 -145 -69 -10 0 -29 -10 -43 -22 -31 -27 -27 -59 10 -83 22 -14 30 -13 101 6 110 31 123 33 123 21 0 -6 -5 -14 -11 -18 -6 -3 -20 -27 -30 -53 -11 -25 -34 -68 -52 -96 -72 -115 -180 -282 -198 -305 -10 -14 -35 -49 -54 -78 -35 -53 -57 -68 -48 -32 10 36 -32 23 -76 -25 -48 -52 -54 -96 -20 -139 36 -46 67 -36 145 47 87 92 261 351 367 547 16 30 38 64 48 76 11 11 19 25 19 30 0 16 136 176 162 190 33 19 59 17 114 -8 49 -22 54 -24 86 -26 9 -1 43 -25 75 -53 32 -28 74 -59 93 -69 19 -10 62 -44 95 -76 33 -33 74 -69 90 -81 17 -12 55 -42 85 -67 51 -42 208 -136 226 -136 5 0 61 -20 124 -45 232 -89 289 -108 315 -101 39 10 30 32 -32 81 -64 51 -287 165 -321 165 -39 0 -153 58 -221 113 -36 30 -82 64 -101 77 -19 13 -55 41 -79 62 -24 21 -69 54 -100 75 -31 20 -78 56 -104 79 -26 24 -70 53 -97 66 -27 13 -49 26 -50 31 0 14 43 24 130 31 47 4 107 12 133 18 42 9 49 14 54 39 3 16 9 29 14 29 5 0 9 8 9 19 0 22 -26 31 -96 31 -97 0 -179 -22 -377 -102 -76 -30 -77 -12 -4 61 91 91 171 182 201 230 22 34 35 43 83 57 59 17 147 14 167 -6 22 -22 52 -10 75 30 l22 40 -23 29 c-13 15 -34 35 -48 44 -14 9 -52 34 -85 55 l-60 39 -5 58 c-4 47 -10 61 -30 76 -33 24 -71 31 -94 18z m-232 -550 c-27 -27 -52 -49 -57 -49 -4 0 -7 17 -5 37 3 34 7 39 48 54 25 9 49 15 53 12 5 -3 -13 -27 -39 -54z"/>
<path d="M5105 2754 c-44 -7 -147 -20 -230 -29 -82 -8 -162 -18 -177 -21 -37 -7 -37 -36 -1 -64 25 -19 38 -21 115 -18 47 1 89 0 92 -3 4 -3 -13 -23 -36 -45 -62 -55 -113 -127 -142 -200 -42 -104 -78 -352 -96 -658 -12 -204 -8 -189 -80 -269 -49 -54 -61 -86 -45 -125 17 -39 67 -52 114 -28 53 28 176 142 272 252 50 58 93 103 95 102 2 -2 10 -99 18 -216 8 -117 18 -217 21 -222 3 -5 1 -11 -3 -14 -10 -6 -23 19 -54 102 -11 28 -26 52 -33 52 -20 0 -30 -63 -15 -91 11 -20 25 -73 50 -194 11 -54 54 -128 92 -160 27 -23 33 -24 51 -12 39 26 42 40 29 144 -7 54 -12 124 -12 155 0 31 -5 69 -11 85 -6 15 -13 55 -15 88 -2 33 -6 87 -9 120 -6 84 13 310 29 350 8 18 32 63 55 100 22 37 46 84 52 104 14 43 70 125 84 123 6 -1 12 -64 15 -145 4 -113 9 -149 23 -170 19 -29 54 -36 75 -15 26 26 10 -19 -66 -186 -43 -94 -97 -200 -120 -235 -48 -74 -54 -119 -22 -151 11 -11 24 -20 29 -20 15 0 73 71 88 109 9 20 31 67 49 105 19 37 34 75 34 82 0 8 15 46 34 83 19 38 55 117 81 175 26 58 51 106 55 106 4 0 11 16 14 36 9 44 30 53 60 25 17 -16 35 -21 75 -21 136 0 352 198 374 342 5 31 1 44 -20 68 -24 29 -27 30 -119 30 -69 0 -106 -5 -143 -20 -28 -11 -52 -16 -55 -12 -2 4 2 25 11 47 8 22 17 79 20 126 5 78 4 88 -15 107 -31 31 -85 38 -128 17 -19 -9 -38 -24 -41 -32 -10 -25 11 -48 41 -45 19 3 29 -3 37 -21 14 -31 -18 -163 -60 -245 -29 -55 -169 -212 -190 -212 -6 0 -11 21 -12 48 -1 143 -15 182 -65 182 -41 0 -66 -25 -142 -144 -31 -48 -67 -100 -80 -115 l-23 -26 6 40 c3 22 8 108 11 190 6 146 5 151 -18 185 -32 47 -68 59 -113 37 -43 -20 -78 -83 -55 -97 8 -5 22 -5 32 1 10 6 23 7 28 4 13 -8 12 -238 -1 -335 -5 -41 -14 -109 -18 -150 -10 -92 -27 -122 -144 -245 l-86 -90 -1 83 c0 46 -5 93 -11 104 -15 27 -16 115 -2 129 8 8 25 7 59 -3 44 -12 49 -17 52 -46 2 -24 8 -32 22 -32 39 0 67 22 81 62 21 65 3 85 -111 122 l-95 31 -3 40 c-2 21 -1 54 3 72 5 27 11 33 41 39 49 9 81 -8 92 -48 10 -41 37 -44 65 -6 28 38 16 90 -31 135 -33 31 -41 34 -82 29 -25 -2 -56 -8 -69 -12 -23 -7 -24 -6 -17 34 17 111 100 224 197 269 41 19 159 52 239 67 25 5 41 17 58 42 25 41 27 48 10 62 -23 18 -81 21 -163 6z m882 -488 c20 -20 -159 -199 -244 -244 -31 -17 -82 -15 -89 3 -9 22 46 156 73 181 13 12 57 32 96 44 40 11 77 23 82 25 12 5 75 -2 82 -9z m-1349 -808 c-6 -18 -28 -21 -28 -4 0 9 7 16 16 16 9 0 14 -5 12 -12z"/>
<path d="M1895 2724 c-140 -30 -180 -40 -236 -60 -58 -20 -79 -22 -156 -17 -77 5 -90 3 -103 -12 -13 -16 -11 -21 25 -51 38 -34 72 -47 148 -59 21 -3 37 -12 37 -19 0 -25 27 -25 71 1 45 25 218 87 284 101 44 9 87 71 69 100 -11 17 -91 26 -139 16z"/>
<path d="M2270 2682 c-37 -18 -47 -49 -20 -62 47 -22 55 -30 62 -61 21 -88 -11 -582 -41 -637 -6 -11 -8 -22 -5 -24 2 -3 0 -17 -5 -32 -17 -43 -55 -35 -85 17 -19 34 -26 66 -36 167 -15 168 -19 189 -42 201 -15 8 -26 6 -45 -6 -22 -15 -24 -21 -19 -63 4 -26 8 -101 11 -167 11 -262 49 -343 127 -265 16 17 34 30 40 30 31 0 -40 -189 -104 -276 -74 -100 -175 -179 -221 -172 -22 3 -22 4 -24 272 l-3 268 45 85 c25 47 45 91 45 99 0 9 -11 14 -30 14 l-30 0 1 68 c0 37 4 103 8 146 11 123 4 153 -45 188 -38 27 -44 29 -82 19 -47 -13 -87 -55 -101 -108 -17 -60 1 -68 61 -26 59 40 64 29 50 -129 -7 -73 -12 -169 -12 -213 -1 -44 -7 -96 -13 -115 -18 -50 -97 -150 -200 -255 l-89 -90 7 50 c10 72 8 85 -14 109 -22 23 -26 60 -15 127 6 36 8 37 58 42 64 6 74 2 78 -31 5 -43 38 -40 96 10 41 35 51 49 51 75 2 55 -29 67 -149 58 -114 -8 -124 -2 -100 64 18 53 36 68 87 76 39 6 47 4 60 -14 8 -13 25 -21 42 -21 38 0 70 56 55 97 -14 40 -48 53 -141 53 -92 0 -97 4 -67 61 31 62 -9 75 -45 16 -45 -75 -112 -335 -126 -491 -10 -114 -8 -347 4 -378 14 -38 -14 -62 -63 -53 -33 7 -39 4 -84 -43 -64 -66 -68 -84 -30 -128 16 -18 38 -34 47 -34 54 0 203 136 421 383 52 59 98 107 101 107 13 0 17 -42 19 -187 1 -82 3 -175 4 -208 2 -110 -30 -74 -74 83 -19 67 -26 82 -43 82 -17 0 -19 -5 -14 -47 10 -85 27 -174 43 -216 17 -46 17 -49 29 -92 13 -50 68 -131 109 -160 l39 -28 25 28 c23 27 24 34 18 100 -3 38 -11 94 -18 123 -9 44 -9 55 2 62 8 5 18 6 23 3 16 -10 90 19 139 54 81 59 197 202 257 321 12 24 28 45 36 48 26 10 69 -20 216 -152 132 -119 279 -221 373 -259 68 -27 218 -63 379 -90 82 -14 83 39 1 86 -29 16 -56 34 -59 38 -5 8 -156 58 -240 79 -92 23 -171 68 -277 158 -115 98 -165 133 -312 225 -48 29 -54 50 -35 127 13 57 23 69 42 54 19 -16 69 -16 104 -1 18 8 76 62 130 121 140 153 143 157 175 225 51 108 30 182 -57 199 -77 15 -116 -104 -43 -128 21 -7 -12 -66 -83 -150 -95 -112 -172 -188 -190 -188 -39 0 -42 19 -35 282 8 282 1 336 -50 389 -32 33 -55 36 -104 11z"/>
<path d="M6479 1918 c-5 -11 -10 -105 -17 -288 l-7 -215 -54 -26 c-30 -15 -73 -29 -95 -33 -23 -3 -61 -10 -86 -15 -106 -24 -395 -3 -437 31 -7 6 -13 21 -13 34 0 12 -5 26 -11 30 -7 4 -10 58 -8 163 2 86 -1 166 -5 179 -17 52 -156 57 -156 6 0 -8 -7 -17 -15 -20 -8 -4 -15 -12 -15 -19 0 -9 11 -12 40 -8 l40 6 0 -181 0 -181 54 -63 c60 -71 74 -78 216 -103 69 -12 114 -13 230 -6 80 5 158 14 173 20 16 6 41 11 56 11 16 0 34 7 41 14 6 8 34 22 61 31 58 20 119 73 119 105 0 12 -11 93 -25 179 -13 86 -27 173 -29 194 -12 94 -29 157 -42 157 -8 0 -14 -1 -15 -2z"/>
<path d="M11812 1809 c-43 -13 -40 -45 5 -69 57 -31 60 -36 67 -128 12 -163 10 -542 -3 -555 -9 -9 -25 2 -69 46 l-57 58 28 51 c19 34 25 54 18 61 -13 13 -56 -5 -100 -43 -18 -17 -38 -30 -43 -30 -5 0 -7 43 -6 96 3 84 1 98 -15 108 -15 9 -22 6 -42 -17 -34 -38 -60 -140 -71 -282 -6 -67 -5 -73 21 -103 34 -40 61 -39 90 3 11 17 33 46 48 65 l28 35 25 -30 c14 -16 32 -43 41 -60 23 -44 122 -158 149 -172 20 -12 25 -10 43 13 12 15 21 41 21 58 0 18 5 37 10 42 7 7 12 86 13 205 l2 194 23 3 c17 3 33 -7 60 -38 21 -23 52 -58 70 -78 l33 -35 25 29 c33 39 50 72 59 113 8 39 -3 51 -51 51 -18 0 -60 13 -95 30 -54 25 -70 28 -101 21 l-38 -9 -2 97 c0 53 0 107 1 120 4 38 -28 108 -60 136 -32 27 -68 31 -127 14z"/>
<path d="M12374 1459 c-19 -21 -19 -22 11 -43 80 -56 135 -142 135 -209 0 -47 40 -111 71 -115 20 -2 28 4 46 41 20 42 20 47 6 108 -18 81 -51 138 -106 183 -72 59 -130 72 -163 35z"/>
</g>
</g>
</svg>
